<svg width="40" height="40" viewBox="0 0 40 40" fill="none" xmlns="http://www.w3.org/2000/svg">
<circle cx="20" cy="20" r="20" fill="#BDBDBD"/>
<path d="M19.9548 12.5083C19.9545 12.5084 19.9544 12.5084 19.9544 12.5084C19.9544 12.5084 19.957 12.5083 19.9637 12.5084C19.971 12.5086 19.9807 12.509 19.9929 12.5096C20.0172 12.5108 20.0493 12.5129 20.0871 12.5158C20.1626 12.5215 20.2593 12.53 20.3588 12.5399C21.2309 12.6272 22.0052 12.9915 22.6136 13.5999C23.221 14.2072 23.5863 14.9828 23.6731 15.8509C23.851 17.6295 22.6964 19.2916 20.953 19.7628C20.8245 19.7975 20.5573 19.843 20.3625 19.8625C18.584 20.0404 16.9219 18.8857 16.4506 17.1423C16.4159 17.0139 16.3705 16.7466 16.351 16.5518C16.1731 14.7732 17.3229 13.1173 19.0714 12.6391C19.2647 12.5863 19.5842 12.5383 19.9548 12.5083ZM19.9548 12.5083L19.9468 12.4087L19.9549 12.5083C19.9549 12.5083 19.9548 12.5083 19.9548 12.5083ZM16.9211 11.8897L16.9791 11.9711L15.0721 17.8414C15.3777 18.7618 15.9887 19.6484 16.7261 20.2417L16.6634 20.3196C16.6634 20.3196 16.6634 20.3196 16.6634 20.3196C16.7251 20.3692 16.7806 20.4167 16.823 20.4553C16.8208 20.4564 16.8186 20.4575 16.8163 20.4585C16.7445 20.4925 16.6455 20.5361 16.5371 20.5809L16.5752 20.6733L16.537 20.5809C15.4195 21.0428 14.453 21.6906 13.5762 22.565C12.8405 23.2987 12.2961 24.0602 11.8351 25.0004C11.2743 26.144 10.9771 27.2909 10.9212 28.5296L10.9001 28.9955L10.8954 29.1H11H11.7053H12.4107H12.5043L12.5105 29.0066L12.5331 28.6637C12.6068 27.543 12.8666 26.5627 13.3368 25.6266C14.0231 24.2601 15.2721 23.011 16.6387 22.3247C17.7274 21.7779 18.7776 21.5306 20.0121 21.5306C21.2465 21.5306 22.2967 21.7779 23.3854 22.3247C24.752 23.011 26.001 24.2601 26.6874 25.6266C27.1575 26.5627 27.4173 27.543 27.4911 28.6637L27.5136 29.0066L27.5198 29.1H27.6134H28.3188H29.0241H29.1287L29.124 28.9955L29.1029 28.5296C29.047 27.2909 28.7498 26.144 28.189 25.0004C27.728 24.0602 27.1836 23.2987 26.4479 22.565C25.5711 21.6906 24.6046 21.0428 23.4871 20.5809L23.4871 20.5809C23.3781 20.5359 23.2776 20.4927 23.2036 20.4596C23.2017 20.4587 23.1998 20.4579 23.1979 20.457C23.2393 20.4197 23.2926 20.3744 23.3519 20.3266L23.352 20.3266C24.1162 19.7118 24.7328 18.8188 25.0469 17.8729L24.952 17.8414C25.1345 17.2919 25.1831 17.0098 25.2045 16.3772C25.2212 15.8842 25.2128 15.7312 25.1492 15.3593C24.9615 14.2615 24.4724 13.3162 23.6848 12.5286C22.9034 11.7471 21.9518 11.2522 20.8779 11.0686L20.8948 10.9701C20.8948 10.9701 20.8948 10.9701 20.8948 10.9701C20.3439 10.8759 19.6442 10.8767 19.101 10.9723C18.3512 11.1042 17.5495 11.4417 16.9211 11.8897Z" fill="white" stroke="white" stroke-width="0.2"/>
</svg>
