<svg width="32" height="30" viewBox="0 0 32 30" fill="none" xmlns="http://www.w3.org/2000/svg">
    <path d="M15.7166 0.128067C16.0496 -0.0426889 16.4504 -0.0426889 16.7834 0.128067L31.4084 7.62807C31.7728 7.81494 32 8.17727 32 8.57143C32 8.96559 31.7728 9.32792 31.4084 9.5148L16.7834 17.0148C16.4504 17.1856 16.0496 17.1856 15.7166 17.0148L1.09164 9.5148C0.727239 9.32792 0.5 8.96559 0.5 8.57143C0.5 8.17727 0.727239 7.81494 1.09164 7.62807L15.7166 0.128067Z" fill="#2E54D0"></path>
    <path d="M3.14702 13.0026L14.6499 18.9015C15.6488 19.4138 16.8512 19.4138 17.8501 18.9015L29.353 13.0026L31.4084 14.0566C31.7728 14.2435 32 14.6058 32 15C32 15.3942 31.7728 15.7565 31.4084 15.9434L16.7834 23.4434C16.4504 23.6141 16.0496 23.6141 15.7166 23.4434L1.09164 15.9434C0.727239 15.7565 0.5 15.3942 0.5 15C0.5 14.6058 0.727239 14.2435 1.09164 14.0566L3.14702 13.0026Z" fill="#2E54D0"></path>
    <path d="M14.6499 25.3301L3.14702 19.4312L1.09164 20.4852C0.727239 20.6721 0.5 21.0344 0.5 21.4286C0.5 21.8227 0.727239 22.1851 1.09164 22.3719L15.7166 29.8719C16.0496 30.0427 16.4504 30.0427 16.7834 29.8719L31.4084 22.3719C31.7728 22.1851 32 21.8227 32 21.4286C32 21.0344 31.7728 20.6721 31.4084 20.4852L29.353 19.4312L17.8501 25.3301C16.8512 25.8424 15.6488 25.8423 14.6499 25.3301Z" fill="#2E54D0"></path>
</svg>