<svg width="28" height="32" viewBox="0 0 28 32" fill="none" xmlns="http://www.w3.org/2000/svg">
    <path fill-rule="evenodd" clip-rule="evenodd" d="M7.25275 7H12.8715L12.875 7H17.9448C20.7373 7.00402 22.9998 9.26904 22.9998 12.0625V26.125C25.4851 26.125 27.4998 24.1103 27.4998 21.625V7.16232C27.4998 4.90423 25.8127 2.9449 23.5038 2.75326C23.1681 2.7254 22.8318 2.69981 22.4949 2.6765C21.745 1.23471 20.2375 0.25 18.5 0.25H16.25C14.5125 0.25 13.005 1.2347 12.2551 2.67648C11.9181 2.69979 11.5817 2.72539 11.2459 2.75326C8.99248 2.94029 7.33132 4.81104 7.25275 7ZM16.25 2.5C15.0074 2.5 14 3.50736 14 4.75H20.75C20.75 3.50736 19.7426 2.5 18.5 2.5H16.25Z" fill="#0E9F6E"></path>
    <path fill-rule="evenodd" clip-rule="evenodd" d="M0.5 12.0625C0.5 10.5092 1.7592 9.25 3.3125 9.25H17.9375C19.4908 9.25 20.75 10.5092 20.75 12.0625V28.9375C20.75 30.4908 19.4908 31.75 17.9375 31.75H3.3125C1.7592 31.75 0.5 30.4908 0.5 28.9375V12.0625ZM14.8785 18.9528C15.2666 18.4676 15.188 17.7597 14.7028 17.3715C14.2176 16.9834 13.5097 17.062 13.1215 17.5472L9.40672 22.1907L8.0455 20.8295C7.60616 20.3902 6.89384 20.3902 6.4545 20.8295C6.01517 21.2688 6.01517 21.9812 6.4545 22.4205L8.7045 24.6705C8.93078 24.8968 9.2427 25.016 9.56221 24.9983C9.88172 24.9806 10.1786 24.8277 10.3785 24.5778L14.8785 18.9528Z" fill="#0E9F6E"></path>
</svg>