<svg width="221" height="162" viewBox="0 0 221 162" fill="none" xmlns="http://www.w3.org/2000/svg">
    <g clip-path="url(#clip0_15599_91460)">
        <path d="M49.3419 44.7055L8.30762 72.1486L48.7262 132.557L89.7605 105.114L49.3419 44.7055Z" fill="#F5F5F5"></path>
        <path d="M68.5575 102.255L68.0894 105.136L47.6895 102.196L48.1576 99.3148L68.5575 102.255Z" fill="#E0E0E0"></path>
        <path d="M58.2837 91.9765L61.2095 92.397L57.9656 112.478L55.0361 112.054L58.2837 91.9765Z" fill="#E0E0E0"></path>
        <path d="M39.493 66.4549C39.5223 66.4951 35.4079 69.2995 30.3098 72.7073C25.2116 76.1151 21.046 78.85 21.0168 78.8062C20.9875 78.7623 25.0982 75.9615 30.2037 72.5501C35.3092 69.1387 39.4638 66.411 39.493 66.4549Z" fill="#E0E0E0"></path>
        <path d="M54.5828 62.6669C54.6121 62.7108 47.7731 67.3324 39.3103 72.9925C30.8475 78.6526 23.95 83.2048 23.9317 83.1646C23.9134 83.1244 30.7378 78.4954 39.2042 72.8353C47.6707 67.1752 54.5536 62.623 54.5828 62.6669Z" fill="#E0E0E0"></path>
        <path d="M57.6075 67.1862C57.6367 67.23 50.7977 71.8554 42.3349 77.5155C33.8721 83.1756 26.9746 87.7278 26.9746 87.6839C26.9746 87.64 33.7807 83.0183 42.2289 77.3546C50.677 71.6908 57.5782 67.1423 57.6075 67.1862Z" fill="#E0E0E0"></path>
        <path d="M60.6317 71.7091C60.6609 71.753 53.8256 76.3783 45.3628 82.0348C36.9 87.6912 30.0025 92.2507 29.9805 92.2068C29.9586 92.163 36.7903 87.5376 45.2567 81.8775C53.7232 76.2174 60.6024 71.6652 60.6317 71.7091Z" fill="#E0E0E0"></path>
        <path d="M63.6607 76.2321C63.69 76.2759 56.851 80.8976 48.3882 86.5577C39.9254 92.2178 33.0279 96.77 33.0059 96.7261C32.984 96.6823 39.8157 92.0606 48.2821 86.4005C56.7486 80.7404 63.6315 76.1882 63.6607 76.2321Z" fill="#E0E0E0"></path>
        <path d="M186.556 85.183L152.094 108.231L186.038 158.963L220.5 135.915L186.556 85.183Z" fill="#F5F5F5"></path>
        <path d="M202.696 133.524L202.305 135.945L185.171 133.476L185.562 131.056L202.696 133.524Z" fill="#E0E0E0"></path>
        <path d="M194.065 124.891L196.527 125.246L193.798 142.109L191.341 141.755L194.065 124.891Z" fill="#E0E0E0"></path>
        <path d="M178.288 103.476C178.318 103.52 174.865 105.878 170.583 108.741C166.3 111.604 162.8 113.893 162.771 113.86C162.741 113.827 166.19 111.461 170.476 108.595C174.763 105.728 178.259 103.414 178.288 103.476Z" fill="#E0E0E0"></path>
        <path d="M190.96 100.276C190.99 100.32 185.251 104.211 178.16 108.96C171.069 113.71 165.265 117.535 165.235 117.491C165.206 117.447 170.944 113.556 178.054 108.803C185.164 104.05 190.931 100.233 190.96 100.276Z" fill="#E0E0E0"></path>
        <path d="M193.502 104.072C193.531 104.116 187.789 108.006 180.684 112.759C173.578 117.513 167.788 121.33 167.759 121.286C167.73 121.242 173.486 117.37 180.577 112.617C187.669 107.863 193.473 104.032 193.502 104.072Z" fill="#E0E0E0"></path>
        <path d="M196.04 107.864C196.07 107.907 190.332 111.798 183.24 116.551C176.149 121.304 170.345 125.122 170.316 125.078C170.286 125.034 176.024 121.147 183.116 116.39C190.207 111.633 196.011 107.827 196.04 107.864Z" fill="#E0E0E0"></path>
        <path d="M198.582 111.67C198.611 111.714 192.873 115.6 185.764 120.354C178.654 125.107 172.868 128.924 172.839 128.884C172.81 128.844 178.548 124.95 185.639 120.197C192.731 115.443 198.553 111.626 198.582 111.67Z" fill="#E0E0E0"></path>
        <path d="M132.034 46.9239L94.4316 26.8167L64.8178 82.173L102.42 102.28L132.034 46.9239Z" fill="#F5F5F5"></path>
        <path d="M95.9868 84.9635L93.6023 85.7789L87.5459 69.0436L89.9304 68.2246L95.9868 84.9635Z" fill="#E0E0E0"></path>
        <path d="M99.6433 72.9559L100.514 75.3582L83.888 81.0512L83.0176 78.6489L99.6433 72.9559Z" fill="#E0E0E0"></path>
        <path d="M111.457 48.2643C111.428 48.3192 107.613 46.3374 102.939 43.8401C98.2652 41.3428 94.4983 39.2696 94.5275 39.2148C94.5568 39.1599 98.3713 41.1417 103.045 43.639C107.719 46.1363 111.486 48.2058 111.457 48.2643Z" fill="#E0E0E0"></path>
        <path d="M120.479 58.2207C120.45 58.2755 114.138 54.9555 106.384 50.8092C98.6309 46.6628 92.3624 43.2551 92.3917 43.2002C92.421 43.1454 98.7333 46.4617 106.49 50.6117C114.247 54.7617 120.508 58.1658 120.479 58.2207Z" fill="#E0E0E0"></path>
        <path d="M118.262 62.3634C118.233 62.4182 111.921 59.1019 104.167 54.9555C96.4141 50.8092 90.1456 47.3978 90.1749 47.3429C90.2042 47.2881 96.5165 50.6081 104.273 54.7544C112.03 58.9008 118.292 62.3085 118.262 62.3634Z" fill="#E0E0E0"></path>
        <path d="M116.047 66.5061C116.017 66.5609 109.705 63.2446 101.952 59.0982C94.1983 54.9519 87.9298 51.5551 87.9591 51.4893C87.9883 51.4235 94.3007 54.7508 102.058 58.8971C109.815 63.0435 116.068 66.4512 116.047 66.5061Z" fill="#E0E0E0"></path>
        <path d="M113.83 70.6488C113.8 70.7036 107.488 67.3873 99.7348 63.2409C91.9815 59.0946 85.713 55.6868 85.7423 55.632C85.7715 55.5771 92.0839 58.8935 99.8409 63.0398C107.598 67.1862 113.874 70.5939 113.83 70.6488Z" fill="#E0E0E0"></path>
        <path opacity="0.2" d="M114.028 0H113.084V16.0808H114.028V0Z" fill="black"></path>
        <path d="M91.5283 35.5365H135.583C135.583 35.5365 131.516 16.0881 113.223 16.0881C96.9483 16.0881 91.5283 35.5365 91.5283 35.5365Z" fill="#00A0D2"></path>
        <path d="M114.028 0H113.084V16.0808H114.028V0Z" fill="#00A0D2"></path>
        <path d="M211.642 160.819C211.642 160.87 164.373 160.914 106.077 160.914C47.7805 160.914 0.5 160.881 0.5 160.819C0.5 160.757 47.7586 160.724 106.077 160.724C164.395 160.724 211.642 160.764 211.642 160.819Z" fill="#263238"></path>
        <path d="M12.2026 137.919C12.8215 137.964 13.4251 138.132 13.9773 138.415C14.5296 138.698 15.0194 139.088 15.4173 139.564C16.2059 140.522 16.7651 141.648 17.0521 142.855C17.6702 145.166 17.2898 147.897 16.6315 150.197C14.1263 149.301 12.583 146.632 11.8771 145.228C10.78 143.012 10.129 138.332 12.1953 137.915" fill="#00A0D2"></path>
        <path d="M20.2156 153.002C19.84 152.419 19.625 151.748 19.5923 151.056C19.5595 150.364 19.7102 149.675 20.029 149.06C20.359 148.451 20.8071 147.914 21.3472 147.48C21.8872 147.046 22.5083 146.724 23.1742 146.533C23.785 146.343 24.4908 146.267 25.0248 146.621C25.2633 146.802 25.449 147.044 25.5628 147.321C25.6766 147.598 25.7143 147.901 25.6721 148.197C25.5745 148.791 25.3222 149.348 24.9407 149.813C23.7228 151.462 22.2417 152.833 20.1863 153.002" fill="#00A0D2"></path>
        <path d="M20.4895 160.728C20.4378 160.572 20.401 160.411 20.3797 160.249C20.3102 159.905 20.2261 159.462 20.1201 158.932C19.7903 157.481 19.6977 155.985 19.8458 154.504C20.0206 153.017 20.5873 151.602 21.4879 150.406C21.7658 150.049 22.085 149.726 22.4388 149.444C22.5336 149.368 22.6325 149.297 22.735 149.232C22.7695 149.205 22.8076 149.183 22.8484 149.166C22.3847 149.56 21.9619 150 21.5866 150.479C20.7302 151.675 20.1904 153.069 20.0177 154.53C19.7836 156.234 20.0725 157.795 20.2408 158.918C20.3322 159.477 20.4017 159.93 20.4456 160.245C20.4746 160.404 20.4893 160.566 20.4895 160.728Z" fill="#263238"></path>
        <path d="M12.9922 141.44C13.0339 141.498 13.0683 141.56 13.0946 141.627L13.3506 142.186C13.5737 142.672 13.8845 143.378 14.2612 144.252C15.0146 146.003 16.024 148.438 17.0736 151.151C18.1233 153.865 19.0229 156.34 19.6337 158.142C19.9446 159.042 20.1933 159.773 20.3651 160.281L20.5517 160.866C20.5755 160.934 20.5939 161.004 20.6065 161.075C20.5694 161.013 20.54 160.947 20.5187 160.877C20.4639 160.731 20.3907 160.541 20.303 160.303L19.5167 158.183C18.8657 156.395 17.9514 153.923 16.8981 151.214C15.8448 148.504 14.8574 146.062 14.1332 144.299C13.7675 143.433 13.4859 142.727 13.2738 142.212C13.1824 141.978 13.1056 141.791 13.047 141.641C13.0233 141.576 13.005 141.509 12.9922 141.44Z" fill="#263238"></path>
        <path d="M17.5203 155.616C16.767 154.362 15.726 153.306 14.4832 152.535C13.2405 151.764 11.8319 151.299 10.3741 151.181C9.64263 151.13 8.74661 151.254 8.4138 151.912C8.08099 152.57 8.52717 153.375 9.03187 153.908C10.1039 155.03 11.4843 155.81 12.9989 156.148C14.5135 156.486 16.0945 156.369 17.5422 155.81" fill="#00A0D2"></path>
        <path d="M11.5079 153.163C11.6617 153.155 11.8159 153.161 11.9687 153.181C12.1502 153.19 12.331 153.211 12.51 153.243C12.7184 153.283 12.9598 153.305 13.2195 153.378C13.5056 153.439 13.7878 153.517 14.0643 153.612C14.3842 153.716 14.698 153.838 15.0042 153.978C15.7064 154.294 16.3712 154.688 16.9864 155.152C17.5923 155.628 18.1409 156.172 18.6212 156.775C18.8312 157.034 19.0242 157.306 19.199 157.59C19.357 157.836 19.4999 158.091 19.6269 158.355C19.7586 158.589 19.8354 158.819 19.9231 159.013C19.9955 159.179 20.0566 159.35 20.106 159.525C20.1602 159.67 20.2006 159.821 20.2267 159.974C20.1901 159.974 20.0109 159.345 19.5208 158.409C19.3864 158.158 19.2387 157.914 19.0783 157.678C18.9006 157.394 18.7064 157.121 18.4968 156.859C18.0162 156.275 17.4743 155.744 16.8803 155.276C16.2762 154.819 15.6252 154.428 14.9383 154.11C14.6165 153.971 14.313 153.839 14.0167 153.744C13.7462 153.644 13.4702 153.56 13.1902 153.492C12.1625 153.236 11.5006 153.203 11.5079 153.163Z" fill="#263238"></path>
        <path d="M177.51 38.5676C176.435 38.8126 175.912 40.0521 175.809 41.149C175.707 42.2459 175.846 43.4087 175.385 44.4105C174.866 45.5367 173.626 46.3703 173.582 47.6099C173.56 48.3667 174.006 49.0724 173.988 49.8366C173.952 51.0798 172.683 52.0304 172.617 53.259C172.569 54.1548 173.165 55.0104 173.023 55.8952C172.909 56.5826 172.375 57.1238 172.149 57.7819C171.695 59.0982 172.598 60.5425 173.776 61.2811C174.433 61.6951 175.173 61.9605 175.944 62.0586C176.714 62.1566 177.497 62.0851 178.237 61.8489C178.977 61.6128 179.657 61.2177 180.228 60.6914C180.799 60.165 181.248 59.5202 181.544 58.8021C182.195 57.2225 182.052 55.4418 181.91 53.7416C181.468 48.4374 181.14 43.1259 180.926 37.8071" fill="#263238"></path>
        <path d="M174.397 57.281C174.617 57.1426 174.788 56.9395 174.888 56.6996C174.996 56.4143 175.04 56.1082 175.016 55.8038C174.974 55.401 174.884 55.0045 174.749 54.6228C174.572 54.1441 174.507 53.6313 174.558 53.1237C174.65 52.5533 175.056 52.0853 175.429 51.6246C175.626 51.3982 175.793 51.146 175.923 50.875C176.05 50.5997 176.071 50.2872 175.981 49.9975C175.791 49.4015 175.206 48.9627 174.935 48.2717C174.812 47.929 174.792 47.558 174.877 47.204C174.96 46.8723 175.082 46.5519 175.242 46.2497C175.551 45.7055 175.797 45.1277 175.974 44.5275C176.233 43.3684 176.113 42.2606 176.288 41.3501C176.385 40.6214 176.707 39.9411 177.21 39.4049C177.353 39.2595 177.517 39.1363 177.696 39.0393C177.757 39.0074 177.823 38.984 177.89 38.9698C177.66 39.0949 177.45 39.2525 177.265 39.4378C176.796 39.9779 176.502 40.647 176.42 41.3574C176.356 41.8424 176.322 42.3308 176.318 42.82C176.315 43.3958 176.257 43.97 176.146 44.5348C175.971 45.1488 175.726 45.7402 175.414 46.2972C175.14 46.8713 174.888 47.544 175.129 48.1729C175.37 48.8018 175.952 49.2369 176.171 49.9097C176.275 50.2414 176.252 50.5999 176.105 50.9152C175.966 51.2007 175.789 51.4663 175.579 51.705C175.213 52.1657 174.814 52.6045 174.727 53.1164C174.676 53.6016 174.732 54.0922 174.891 54.5533C175.025 54.9458 175.107 55.3538 175.136 55.7673C175.152 56.0853 175.096 56.4029 174.972 56.696C174.893 56.8794 174.767 57.0385 174.606 57.1567C174.546 57.2124 174.475 57.2548 174.397 57.281Z" fill="#455A64"></path>
        <path d="M171.519 65.9503L168.228 75.4569L154.462 76.1882L152.165 81.3072L166.538 82.7697C167.217 83.0504 167.946 83.1903 168.681 83.181C169.416 83.1717 170.141 83.0133 170.813 82.7156C171.485 82.4179 172.089 81.9869 172.59 81.4488C173.09 80.9107 173.476 80.2766 173.724 79.585L177.561 68.8791L171.519 65.9503Z" fill="#B78876"></path>
        <path d="M199.994 155.653C199.994 155.653 189.904 123.615 189.692 122.577C189.498 121.633 193.349 98.5799 193.839 92.5944L180.205 93.1027V93.2379L174.412 93.5597L179.602 159.053H185.874L185.252 137.316C189.121 147.696 194.662 158.278 194.662 158.278L199.994 155.653Z" fill="#B78876"></path>
        <path d="M185.508 145.115C185.508 144.917 185.431 137.831 185.431 137.831C185.354 138.255 183.028 131.681 183.083 131.283C183.112 131.074 185.508 145.115 185.508 145.115Z" fill="#A36957"></path>
        <path d="M182.816 128.167C182.786 128.298 182.773 128.432 182.776 128.566C182.776 128.822 182.776 129.195 182.776 129.663C182.776 129.893 182.809 130.142 182.838 130.412C182.867 130.683 182.908 130.968 182.97 131.264C183.097 131.912 183.268 132.549 183.482 133.173C183.939 134.5 184.44 135.659 184.798 136.5L185.233 137.491C185.278 137.621 185.341 137.744 185.42 137.857C185.4 137.73 185.364 137.607 185.31 137.491C185.226 137.25 185.098 136.903 184.945 136.475C184.623 135.619 184.144 134.449 183.69 133.136C183.48 132.521 183.307 131.893 183.171 131.257C183.101 130.965 183.061 130.683 183.021 130.42C182.981 130.156 182.951 129.908 182.933 129.688C182.889 129.235 182.871 128.869 182.86 128.613C182.867 128.463 182.853 128.313 182.816 128.167Z" fill="#A36957"></path>
        <path d="M179.481 159.386V158.797L185.906 158.515L185.925 160.947L185.526 160.973C183.763 161.075 176.551 161.375 175.37 161.02C174.053 160.625 179.481 159.386 179.481 159.386Z" fill="#455A64"></path>
        <path d="M186.012 160.801C185.976 160.803 185.939 160.803 185.903 160.801L185.588 160.823L184.425 160.874C183.445 160.914 182.088 160.951 180.589 160.958C179.089 160.965 177.732 160.94 176.752 160.91L175.589 160.863H175.275H175.165C175.202 160.86 175.238 160.86 175.275 160.863H175.589L176.752 160.885C177.736 160.885 179.089 160.914 180.589 160.907C182.088 160.899 183.441 160.874 184.425 160.848L185.584 160.819H186.012V160.801Z" fill="#263238"></path>
        <path d="M177.4 161.005C177.35 160.813 177.276 160.627 177.18 160.453C177.066 160.291 176.934 160.142 176.785 160.011C176.976 160.095 177.137 160.236 177.246 160.413C177.356 160.591 177.409 160.797 177.4 161.005Z" fill="#263238"></path>
        <path d="M179.284 160.044C179.265 160.044 179.174 159.945 179.082 159.799C178.991 159.653 178.925 159.525 178.943 159.514C178.962 159.503 179.053 159.609 179.148 159.755C179.243 159.901 179.302 160.033 179.284 160.044Z" fill="#263238"></path>
        <path d="M179.799 159.784C179.799 159.803 179.685 159.733 179.576 159.634C179.466 159.536 179.386 159.444 179.4 159.43C179.415 159.415 179.517 159.481 179.627 159.579C179.737 159.678 179.813 159.751 179.799 159.784Z" fill="#263238"></path>
        <path d="M180.125 159.163C180.019 159.203 179.905 159.218 179.792 159.207C179.68 159.221 179.566 159.21 179.459 159.174C179.565 159.133 179.679 159.118 179.792 159.13C179.904 159.115 180.018 159.126 180.125 159.163Z" fill="#263238"></path>
        <path d="M180.238 158.739C180.129 158.809 180.002 158.847 179.872 158.848C179.742 158.868 179.609 158.85 179.488 158.797C179.609 158.777 179.731 158.767 179.854 158.768C179.981 158.745 180.109 158.735 180.238 158.739Z" fill="#263238"></path>
        <path d="M179.064 159.484C178.928 159.51 178.789 159.51 178.654 159.484C178.505 159.467 178.358 159.435 178.215 159.389C178.128 159.366 178.045 159.331 177.967 159.287C177.917 159.259 177.88 159.213 177.864 159.159C177.857 159.128 177.86 159.097 177.871 159.067C177.882 159.038 177.901 159.013 177.926 158.994C178.083 158.916 178.262 158.896 178.432 158.936C178.603 158.976 178.753 159.074 178.859 159.214C178.923 159.294 178.968 159.388 178.991 159.488C178.999 159.524 178.999 159.562 178.991 159.598C178.949 159.466 178.885 159.342 178.8 159.232C178.702 159.123 178.576 159.045 178.435 159.005C178.273 158.953 178.097 158.966 177.945 159.042C177.879 159.09 177.904 159.166 177.978 159.21C178.051 159.25 178.128 159.283 178.208 159.309C178.347 159.354 178.489 159.389 178.632 159.415C178.906 159.473 179.064 159.473 179.064 159.484Z" fill="#263238"></path>
        <path d="M178.973 159.506C178.924 159.42 178.907 159.319 178.925 159.221C178.939 159.114 178.977 159.012 179.035 158.921C179.07 158.86 179.119 158.808 179.179 158.771C179.24 158.734 179.308 158.713 179.379 158.709C179.42 158.719 179.456 158.744 179.479 158.779C179.502 158.815 179.511 158.858 179.503 158.899C179.495 158.965 179.473 159.027 179.437 159.082C179.381 159.173 179.317 159.257 179.243 159.334C179.18 159.407 179.099 159.464 179.009 159.499C179.009 159.499 179.09 159.426 179.203 159.294C179.269 159.219 179.326 159.137 179.375 159.049C179.43 158.962 179.466 158.804 179.375 158.786C179.283 158.768 179.166 158.881 179.104 158.962C179.049 159.042 179.01 159.133 178.991 159.228C178.976 159.32 178.97 159.413 178.973 159.506Z" fill="#263238"></path>
        <path d="M185.877 159.053C185.877 159.053 185.695 159.053 185.406 159.071C185.029 159.115 184.672 159.264 184.376 159.501C184.081 159.738 183.858 160.055 183.734 160.413C183.639 160.687 183.628 160.874 183.614 160.87C183.607 160.828 183.607 160.785 183.614 160.742C183.625 160.624 183.648 160.508 183.683 160.395C183.798 160.02 184.022 159.688 184.327 159.441C184.634 159.196 185.007 159.049 185.398 159.02C185.52 159.005 185.643 159.005 185.764 159.02C185.803 159.026 185.841 159.037 185.877 159.053Z" fill="#263238"></path>
        <path d="M182.798 160.289C182.18 160.403 181.546 160.403 180.929 160.289C180.929 160.267 181.349 160.289 181.865 160.289C182.381 160.289 182.798 160.267 182.798 160.289Z" fill="#263238"></path>
        <path d="M184.052 160.278C184.052 160.278 184.015 160.366 183.975 160.461C183.935 160.556 183.909 160.643 183.887 160.64C183.866 160.636 183.855 160.541 183.906 160.428C183.957 160.314 184.037 160.26 184.052 160.278Z" fill="#263238"></path>
        <path d="M184.521 159.689C184.521 159.689 184.495 159.77 184.43 159.835C184.364 159.901 184.298 159.945 184.283 159.93C184.269 159.916 184.309 159.85 184.375 159.781C184.441 159.711 184.506 159.671 184.521 159.689Z" fill="#263238"></path>
        <path d="M185.19 159.419C185.19 159.441 185.098 159.441 185.007 159.473C184.915 159.506 184.846 159.558 184.828 159.543C184.809 159.528 184.864 159.441 184.981 159.4C185.098 159.36 185.19 159.397 185.19 159.419Z" fill="#263238"></path>
        <path d="M185.676 159.287C185.676 159.309 185.647 159.342 185.596 159.36C185.545 159.378 185.494 159.382 185.486 159.36C185.479 159.338 185.516 159.305 185.567 159.287C185.618 159.269 185.669 159.269 185.676 159.287Z" fill="#263238"></path>
        <path d="M194.538 158.819L194.293 158.281L200.042 155.397L201.052 157.59L200.686 157.777C199.121 158.592 192.662 161.817 191.44 161.978C190.095 162.172 194.538 158.819 194.538 158.819Z" fill="#455A64"></path>
        <path d="M201.073 157.433C201.073 157.433 201.044 157.455 200.978 157.492L200.7 157.638L199.662 158.164C198.784 158.6 197.559 159.188 196.195 159.81C194.831 160.431 193.583 160.962 192.676 161.338L191.579 161.773L191.283 161.887C191.251 161.903 191.216 161.914 191.181 161.92L191.279 161.872L191.568 161.744L192.636 161.287C193.54 160.899 194.783 160.358 196.144 159.737C197.504 159.115 198.733 158.537 199.618 158.113L200.667 157.612L200.953 157.477L201.073 157.433Z" fill="#263238"></path>
        <path d="M193.302 161.152C193.176 160.995 193.031 160.855 192.87 160.735C192.698 160.634 192.515 160.553 192.325 160.494C192.535 160.479 192.743 160.542 192.91 160.669C193.098 160.774 193.238 160.946 193.302 161.152Z" fill="#263238"></path>
        <path d="M194.625 159.499C194.625 159.499 194.486 159.455 194.34 159.36C194.194 159.265 194.087 159.174 194.098 159.155C194.109 159.137 194.237 159.199 194.384 159.294C194.53 159.389 194.636 159.481 194.625 159.499Z" fill="#263238"></path>
        <path d="M194.984 159.053C194.893 159.062 194.801 159.047 194.717 159.009C194.574 158.962 194.465 158.91 194.472 158.888C194.563 158.88 194.655 158.895 194.739 158.932C194.882 158.965 194.991 159.016 194.984 159.053Z" fill="#263238"></path>
        <path d="M195.031 158.351C195.031 158.373 194.914 158.45 194.746 158.53C194.648 158.587 194.54 158.624 194.428 158.636C194.428 158.614 194.545 158.537 194.713 158.457C194.81 158.4 194.919 158.364 195.031 158.351Z" fill="#263238"></path>
        <path d="M194.958 157.919C194.958 157.919 194.856 158.066 194.666 158.172C194.558 158.244 194.43 158.283 194.3 158.281C194.406 158.211 194.519 158.152 194.636 158.102C194.808 158.004 194.943 157.901 194.958 157.919Z" fill="#263238"></path>
        <path d="M194.198 159.082C194.087 159.159 193.963 159.216 193.832 159.25C193.69 159.292 193.544 159.323 193.397 159.342C193.307 159.353 193.216 159.353 193.126 159.342C193.098 159.34 193.071 159.333 193.046 159.32C193.021 159.308 192.998 159.29 192.98 159.269C192.963 159.243 192.954 159.212 192.954 159.181C192.954 159.15 192.963 159.119 192.98 159.093C193.091 158.958 193.246 158.867 193.417 158.833C193.589 158.8 193.766 158.827 193.92 158.91C194.01 158.959 194.089 159.025 194.154 159.104C194.198 159.163 194.213 159.199 194.209 159.203C194.121 159.102 194.014 159.019 193.894 158.958C193.766 158.897 193.622 158.876 193.481 158.896C193.397 158.904 193.316 158.929 193.242 158.969C193.168 159.009 193.102 159.064 193.05 159.13C193.009 159.199 193.05 159.258 193.148 159.269C193.232 159.276 193.317 159.276 193.401 159.269C193.545 159.254 193.688 159.228 193.829 159.192C194.048 159.133 194.194 159.071 194.198 159.082Z" fill="#263238"></path>
        <path d="M194.109 159.144C194.028 159.086 193.971 159.001 193.949 158.903C193.915 158.801 193.907 158.691 193.927 158.585C193.933 158.515 193.957 158.448 193.996 158.39C194.035 158.332 194.088 158.284 194.15 158.252C194.241 158.223 194.457 158.409 194.472 158.479C194.486 158.548 194.362 158.512 194.358 158.57C194.345 158.674 194.319 158.776 194.281 158.874C194.255 158.967 194.206 159.052 194.139 159.122C194.139 159.122 194.183 159.024 194.23 158.859C194.26 158.763 194.278 158.664 194.285 158.563C194.285 158.461 194.285 158.303 194.172 158.329C194.058 158.355 194.018 158.497 193.996 158.6C193.976 158.695 193.976 158.793 193.996 158.888C194.025 158.977 194.063 159.063 194.109 159.144Z" fill="#263238"></path>
        <path d="M200.232 155.894C200.232 155.894 200.06 155.956 199.812 156.106C199.486 156.3 199.222 156.581 199.047 156.918C198.877 157.257 198.804 157.636 198.835 158.015C198.861 158.307 198.927 158.475 198.916 158.483C198.905 158.49 198.89 158.442 198.861 158.366C198.823 158.254 198.796 158.139 198.78 158.022C198.733 157.632 198.802 157.236 198.978 156.885C199.158 156.537 199.438 156.25 199.782 156.062C199.886 156.005 199.995 155.958 200.108 155.923C200.148 155.907 200.189 155.897 200.232 155.894Z" fill="#263238"></path>
        <path d="M197.931 158.285C197.682 158.475 197.409 158.631 197.119 158.749C196.838 158.889 196.541 158.994 196.234 159.06C196.234 159.038 196.6 158.892 197.087 158.695C197.573 158.497 197.92 158.267 197.931 158.285Z" fill="#263238"></path>
        <path d="M199.087 157.762C199.109 157.762 199.087 157.854 199.087 157.96C199.087 158.066 199.087 158.153 199.087 158.161C199.087 158.168 199.018 158.08 199.018 157.96C199.018 157.839 199.05 157.751 199.087 157.762Z" fill="#263238"></path>
        <path d="M199.26 157.031C199.26 157.031 199.26 157.115 199.234 157.203C199.208 157.291 199.161 157.356 199.139 157.349C199.117 157.342 199.139 157.265 199.164 157.177C199.19 157.089 199.238 157.024 199.26 157.031Z" fill="#263238"></path>
        <path d="M199.764 156.493C199.764 156.515 199.691 156.548 199.618 156.618C199.545 156.687 199.505 156.76 199.483 156.753C199.461 156.746 199.483 156.643 199.567 156.559C199.651 156.475 199.761 156.493 199.764 156.493Z" fill="#263238"></path>
        <path d="M200.148 156.194C200.148 156.194 200.148 156.252 200.104 156.292C200.06 156.333 200.02 156.355 200.005 156.34C199.991 156.325 200.005 156.281 200.049 156.241C200.093 156.201 200.133 156.179 200.148 156.194Z" fill="#263238"></path>
        <path d="M192.954 81.7715L191.883 68.7182L197.368 68.8169C197.368 68.8169 197.624 66.89 196.816 62.6705C196.319 60.0818 194.593 58.4949 192.658 57.5516V57.515L192.49 57.4711C190.896 56.7565 189.194 56.3128 187.454 56.1585L180.706 56.2353C180.706 56.2353 175.553 55.5917 172.701 59.2664C171.603 60.6814 168.202 70.3672 168.202 70.3672L176.299 74.2649L175.531 68.8937C175.531 68.8937 175.681 72.7877 176.179 74.0126C176.456 74.7 177.276 76.8354 177.276 76.8354L177.173 83.2779L192.954 81.7715Z" fill="#00A0D2"></path>
        <path d="M189.231 66.8242L188.232 71.0875H197.679L197.057 63.9356L189.231 66.8242Z" fill="#00A0D2"></path>
        <path d="M197.679 71.0875C197.266 71.0118 196.848 70.9702 196.428 70.9632C195.653 70.9193 194.581 70.8791 193.396 70.8864C192.211 70.8937 191.144 70.9449 190.368 71.0034C189.949 71.0176 189.531 71.069 189.121 71.157C189.539 71.1903 189.958 71.1903 190.376 71.157C191.151 71.1314 192.204 71.1022 193.4 71.0985C194.596 71.0948 195.649 71.0985 196.421 71.1168C196.84 71.1401 197.261 71.1304 197.679 71.0875Z" fill="#263238"></path>
        <path d="M188.825 63.9027C188.777 64.2663 188.766 64.6338 188.792 64.9996C188.792 65.6687 188.825 66.5902 188.865 67.6103C188.905 68.6304 188.953 69.5555 188.997 70.221C189.001 70.5893 189.039 70.9564 189.11 71.3179C189.158 70.9542 189.169 70.5868 189.143 70.221C189.143 69.5518 189.114 68.6268 189.073 67.6066C189.033 66.5865 188.986 65.6651 188.942 64.996C188.938 64.6286 188.899 64.2625 188.825 63.9027Z" fill="#263238"></path>
        <g opacity="0.3">
            <path d="M180.227 67.5957C180.227 67.5957 182.329 83.1609 188.232 82.7478C188.232 82.7478 190.887 82.7185 191.743 80.9525V80.2578L180.227 67.5957Z" fill="black"></path>
        </g>
        <g opacity="0.3">
            <path d="M188.825 64.8205L187.695 72.4513L188.427 73.7896L189.63 71.1716L189.122 71.157L188.825 64.8205Z" fill="black"></path>
        </g>
        <path d="M177.272 76.8427C177.204 76.728 177.151 76.6052 177.115 76.477C177.023 76.2394 176.899 75.892 176.749 75.4569C176.379 74.3242 176.078 73.1703 175.846 72.0016C175.61 70.8331 175.46 69.6489 175.396 68.4586C175.374 68.0015 175.367 67.6322 175.374 67.3617C175.367 67.2293 175.376 67.0966 175.403 66.9668C175.432 66.9668 175.454 67.5299 175.531 68.4293C175.634 69.6088 175.801 70.7818 176.032 71.9431C176.303 73.3033 176.628 74.5209 176.877 75.3947C176.994 75.8006 177.093 76.148 177.173 76.4332C177.226 76.564 177.26 76.702 177.272 76.8427Z" fill="#263238"></path>
        <path d="M179.661 81.3145C179.609 81.3145 179.463 80.9964 179.335 80.5832C179.225 80.3299 179.175 80.0546 179.189 79.7788C179.24 79.7788 179.386 80.1005 179.514 80.5283C179.622 80.7761 179.672 81.0448 179.661 81.3145Z" fill="#263238"></path>
        <path d="M180.476 81.256C180.309 80.9011 180.235 80.51 180.26 80.1188C180.22 79.7298 180.281 79.3371 180.436 78.978C180.464 79.3578 180.464 79.7391 180.436 80.1188C180.478 80.4963 180.491 80.8764 180.476 81.256Z" fill="#263238"></path>
        <path d="M176.478 74.4441C176.456 74.488 174.569 73.5958 172.268 72.4477C169.968 71.2996 168.121 70.327 168.147 70.2795C168.172 70.2319 170.052 71.1277 172.356 72.2758C174.66 73.4239 176.503 74.3966 176.478 74.4441Z" fill="#263238"></path>
        <path d="M179.799 57.4967C179.843 55.6466 179.854 53.7014 179.854 53.7014C179.854 53.7014 177.48 53.2443 177.067 50.1218C176.672 47.1455 177.773 40.1581 177.773 40.1581C181.24 38.8491 184.842 40.0375 187.219 42.8456L186.627 57.8624C186.561 59.6065 185.007 60.9374 183.138 60.8496C181.255 60.7582 179.759 59.2591 179.799 57.4967Z" fill="#B78876"></path>
        <path d="M177.594 45.7414C177.59 45.8442 177.626 45.9445 177.694 46.0215C177.762 46.0985 177.857 46.1462 177.96 46.1546C178.012 46.1626 178.066 46.159 178.117 46.1443C178.168 46.1295 178.215 46.1038 178.255 46.069C178.295 46.0342 178.327 45.9912 178.348 45.9428C178.37 45.8945 178.381 45.842 178.38 45.789C178.384 45.6866 178.349 45.5867 178.28 45.5103C178.212 45.4339 178.117 45.387 178.015 45.3795C177.963 45.3716 177.909 45.375 177.859 45.3896C177.808 45.4041 177.761 45.4295 177.721 45.4639C177.681 45.4982 177.649 45.5408 177.627 45.5888C177.605 45.6367 177.594 45.6887 177.594 45.7414Z" fill="#263238"></path>
        <path d="M177.447 45.2186C177.495 45.2698 177.813 45.054 178.23 45.0687C178.647 45.0833 178.961 45.3027 179.016 45.2515C179.071 45.2003 178.99 45.1345 178.859 45.0284C178.676 44.8958 178.456 44.823 178.23 44.82C178.007 44.8115 177.787 44.8757 177.604 45.0028C177.469 45.1016 177.421 45.193 177.447 45.2186Z" fill="#263238"></path>
        <path d="M181.95 46.012C181.945 46.1147 181.981 46.2151 182.049 46.2921C182.117 46.3691 182.213 46.4168 182.315 46.4252C182.368 46.4331 182.421 46.4296 182.472 46.4148C182.523 46.4 182.57 46.3744 182.61 46.3396C182.65 46.3048 182.682 46.2618 182.704 46.2134C182.726 46.165 182.736 46.1125 182.736 46.0595C182.74 45.9572 182.704 45.8573 182.636 45.7809C182.568 45.7044 182.472 45.6575 182.37 45.65C182.318 45.6421 182.265 45.6456 182.214 45.6601C182.164 45.6747 182.117 45.7 182.077 45.7344C182.037 45.7688 182.005 45.8114 181.983 45.8593C181.961 45.9072 181.949 45.9593 181.95 46.012Z" fill="#263238"></path>
        <path d="M181.92 45.4891C181.968 45.544 182.286 45.3283 182.703 45.3392C183.12 45.3502 183.435 45.5732 183.489 45.5221C183.544 45.4709 183.467 45.405 183.332 45.3027C183.151 45.1665 182.93 45.0922 182.703 45.0906C182.48 45.0837 182.261 45.1477 182.078 45.2734C181.942 45.3721 181.898 45.4635 181.92 45.4891Z" fill="#263238"></path>
        <path d="M180.278 48.63C180.055 48.5525 179.823 48.5045 179.587 48.4874C179.477 48.4874 179.375 48.4472 179.356 48.374C179.351 48.2601 179.379 48.1471 179.437 48.0486C179.55 47.789 179.664 47.5111 179.803 47.2259C180.12 46.5263 180.382 45.8025 180.585 45.0613C180.211 45.7328 179.892 46.4335 179.631 47.1565L179.298 47.9865C179.226 48.1167 179.201 48.2679 179.228 48.4143C179.244 48.4537 179.268 48.4893 179.299 48.5183C179.33 48.5474 179.367 48.5693 179.408 48.5824C179.467 48.5997 179.529 48.6095 179.591 48.6117C179.818 48.6463 180.049 48.6524 180.278 48.63Z" fill="#263238"></path>
        <path d="M179.854 53.7014C181.317 53.76 182.767 53.4119 184.045 52.6959C184.045 52.6959 182.98 54.8056 179.875 54.4363L179.854 53.7014Z" fill="#A36957"></path>
        <path d="M183.292 44.2423C183.204 44.3776 182.878 44.3191 182.513 44.2423C182.147 44.1655 181.821 44.1034 181.781 43.9462C181.741 43.7889 182.121 43.5805 182.608 43.6792C183.094 43.778 183.383 44.1253 183.292 44.2423Z" fill="#263238"></path>
        <path d="M179.027 43.6207C178.994 43.778 178.661 43.8365 178.241 43.8547C177.82 43.873 177.484 43.8547 177.436 43.6939C177.389 43.533 177.729 43.3063 178.215 43.2843C178.701 43.2624 179.06 43.4708 179.027 43.6207Z" fill="#263238"></path>
        <path d="M180.285 49.6574C180.239 49.6478 180.191 49.6532 180.148 49.673C180.106 49.6927 180.07 49.7257 180.048 49.7671C180.022 49.817 180.014 49.8739 180.025 49.9289C180.036 49.9838 180.064 50.0337 180.106 50.0706C180.15 50.105 180.204 50.1237 180.26 50.1237C180.316 50.1237 180.37 50.105 180.413 50.0706C180.457 50.0346 180.487 49.9852 180.499 49.9302C180.511 49.8752 180.504 49.8178 180.479 49.7671C180.452 49.7177 180.41 49.6789 180.358 49.657C180.306 49.6351 180.248 49.6314 180.194 49.6465" fill="#A36957"></path>
        <path d="M180.388 49.7013C180.407 49.683 180.319 49.577 180.132 49.6172C180.076 49.6311 180.025 49.6598 179.984 49.7003C179.943 49.7408 179.913 49.7917 179.898 49.8476C179.879 49.9176 179.88 49.9918 179.903 50.0609C179.926 50.1299 179.969 50.1906 180.026 50.2351C180.087 50.276 180.158 50.2979 180.231 50.2979C180.304 50.2979 180.375 50.276 180.436 50.2351C180.485 50.2022 180.523 50.1564 180.547 50.1027C180.571 50.0491 180.579 49.9898 180.571 49.9317C180.531 49.7379 180.388 49.7086 180.385 49.7342C180.381 49.7598 180.436 49.8256 180.421 49.939C180.42 49.9672 180.411 49.9944 180.395 50.0181C180.38 50.0418 180.359 50.0611 180.334 50.0743C180.306 50.0903 180.274 50.0988 180.242 50.0988C180.21 50.0988 180.178 50.0903 180.151 50.0743C180.125 50.0526 180.106 50.0247 180.094 49.9934C180.083 49.962 180.079 49.9281 180.085 49.8951C180.089 49.8662 180.1 49.8388 180.117 49.8152C180.135 49.7916 180.157 49.7726 180.184 49.7598C180.282 49.6977 180.374 49.7269 180.388 49.7013Z" fill="#263238"></path>
        <path d="M185.782 46.5129C185.417 47.3685 184.51 48.0303 184.634 48.9554C184.714 49.5514 185.098 50.1072 185.022 50.7068C184.93 51.4381 184.147 51.9792 184.038 52.7288C183.902 53.6466 184.795 54.3595 185.135 55.2151C185.654 56.4656 184.989 57.8697 184.974 59.2372C184.995 60.2751 185.391 61.2702 186.09 62.0381C186.789 62.806 187.742 63.2944 188.774 63.4128C189.611 63.4822 190.551 63.23 190.968 62.5133C191.334 61.921 191.253 61.1677 191.469 60.5133C191.787 59.5333 192.72 58.8167 192.932 57.8075C193.298 55.9793 191.063 54.4436 191.21 52.5716C191.275 51.7708 191.765 51.0761 191.978 50.301C192.11 49.7913 192.12 49.2574 192.007 48.7431C191.893 48.2289 191.658 47.749 191.323 47.3429C190.774 46.6884 189.977 46.246 189.494 45.544C188.964 44.7359 188.946 43.7158 188.745 42.7615C188.5 41.6016 187.964 40.5228 187.189 39.6259C186.414 38.729 185.423 38.0435 184.311 37.6333C183.198 37.2231 182 37.1017 180.828 37.2804C179.656 37.4592 178.548 37.9322 177.608 38.6554C177.608 38.6554 177.078 41.0649 179.55 41.4708C182.023 41.8766 183.171 41.4086 183.453 42.3995C183.386 42.8077 183.418 43.2258 183.546 43.6193C183.673 44.0128 183.892 44.3704 184.184 44.6628C185.248 45.7524 186.21 45.5184 185.782 46.5129Z" fill="#263238"></path>
        <path d="M189.729 63.2263C189.652 63.2287 189.576 63.2214 189.502 63.2044C189.287 63.1663 189.077 63.1088 188.873 63.0325C188.119 62.7428 187.458 62.2537 186.96 61.6175C186.608 61.1794 186.332 60.6849 186.145 60.1549C185.931 59.5523 185.818 58.9185 185.812 58.2792C185.804 57.5743 185.893 56.8716 186.079 56.1914C186.172 55.8323 186.288 55.4794 186.426 55.1347C186.58 54.7928 186.714 54.4424 186.828 54.0853C186.929 53.7341 186.929 53.3616 186.828 53.0103C186.722 52.6639 186.582 52.3284 186.412 52.0085C186.243 51.6904 186.101 51.3589 185.987 51.0176C185.875 50.6797 185.848 50.319 185.91 49.9682C186.057 49.2808 186.474 48.7689 186.722 48.2461C186.958 47.7616 187.071 47.2268 187.052 46.6884C187.018 45.9005 186.732 45.1441 186.236 44.5312C186.042 44.3168 185.834 44.1153 185.614 43.9279C185.872 44.0711 186.103 44.2593 186.294 44.4836C186.825 45.0973 187.138 45.8681 187.187 46.6775C187.218 47.2398 187.106 47.8007 186.861 48.3082C186.613 48.8494 186.207 49.3649 186.082 49.9938C185.958 50.6227 186.254 51.2845 186.58 51.9207C186.757 52.2506 186.902 52.5972 187.011 52.9555C187.119 53.338 187.119 53.743 187.011 54.1255C186.896 54.4904 186.759 54.8481 186.602 55.1969C186.467 55.5347 186.352 55.8803 186.258 56.2316C186.077 56.8953 185.986 57.5803 185.987 58.2682C185.977 59.4402 186.357 60.5823 187.066 61.5151C187.539 62.1444 188.17 62.6376 188.895 62.9448C189.418 63.1714 189.732 63.2044 189.729 63.2263Z" fill="#455A64"></path>
        <path d="M189.367 44.7762C189.188 44.8218 189.006 44.8488 188.822 44.8566C188.32 44.9103 187.813 44.8967 187.315 44.8164C186.937 44.7609 186.574 44.6304 186.248 44.4326C185.921 44.2348 185.637 43.9737 185.413 43.6646C185.202 43.2747 185.036 42.8627 184.916 42.4361C184.76 42.0105 184.466 41.649 184.082 41.4086C183.281 40.9004 182.341 40.8382 181.522 40.7395C180.767 40.7012 180.035 40.4723 179.393 40.074C178.963 39.7888 178.652 39.3556 178.519 38.8565C178.488 38.721 178.479 38.5817 178.49 38.4433C178.494 38.3948 178.504 38.347 178.519 38.3007C178.526 38.4818 178.551 38.6618 178.592 38.8382C178.744 39.3049 179.054 39.7035 179.47 39.9643C180.101 40.3329 180.814 40.5389 181.544 40.564C182.359 40.6591 183.336 40.7066 184.192 41.2477C184.609 41.5109 184.927 41.9059 185.095 42.3703C185.213 42.7844 185.371 43.1861 185.567 43.5695C185.994 44.154 186.633 44.5478 187.348 44.6665C187.83 44.7563 188.321 44.7895 188.811 44.7652C188.996 44.7551 189.182 44.7588 189.367 44.7762Z" fill="#455A64"></path>
        <path d="M188.456 41.7998C188.319 41.847 188.173 41.8681 188.028 41.862C187.346 41.8666 186.69 41.6041 186.2 41.1307C185.976 40.9064 185.785 40.6516 185.633 40.3739C185.3 39.8181 184.985 39.1343 184.302 38.8491C183.642 38.6276 182.938 38.5661 182.25 38.67C181.67 38.7514 181.082 38.7514 180.502 38.67C180.105 38.6108 179.731 38.4438 179.423 38.1873C179.342 38.1155 179.269 38.0345 179.207 37.946C179.166 37.8826 179.147 37.8497 179.152 37.8473C179.152 37.8473 179.255 37.9643 179.47 38.1288C179.782 38.3513 180.144 38.4921 180.524 38.5383C181.093 38.6026 181.668 38.5927 182.235 38.5091C182.954 38.3914 183.69 38.4542 184.378 38.6919C184.73 38.8508 185.032 39.1039 185.249 39.4232C185.443 39.7082 185.621 40.0036 185.783 40.308C185.924 40.5744 186.102 40.8204 186.309 41.0393C186.494 41.2251 186.706 41.3817 186.938 41.5037C187.278 41.6817 187.652 41.7851 188.036 41.8072C188.303 41.8035 188.456 41.7816 188.456 41.7998Z" fill="#455A64"></path>
        <path d="M190.822 62.4365C190.822 62.4365 190.917 62.1952 191.052 61.7418C191.237 61.1056 191.319 60.4441 191.297 59.782C191.267 58.8027 191 57.8454 190.518 56.9921C190.251 56.5132 189.841 56.0854 189.512 55.5588C189.336 55.2906 189.212 54.9917 189.147 54.6777C189.091 54.347 189.118 54.0077 189.227 53.6904C189.432 53.0579 189.801 52.5277 189.878 51.9463C189.955 51.365 189.684 50.8494 189.406 50.3631C189.261 50.1273 189.131 49.8831 189.015 49.6318C188.908 49.3889 188.838 49.1313 188.806 48.8676C188.773 48.4031 188.786 47.9364 188.847 47.4746C188.964 46.8225 188.905 46.1507 188.675 45.5294C188.571 45.3119 188.424 45.1178 188.243 44.959C188.243 44.959 188.243 44.959 188.287 44.9809C188.329 45.0043 188.369 45.0325 188.404 45.065C188.546 45.1844 188.661 45.3328 188.741 45.5001C189.007 46.126 189.09 46.8142 188.982 47.4855C188.932 47.9385 188.925 48.3952 188.964 48.8494C189.052 49.3607 189.255 49.8456 189.556 50.268C189.712 50.5151 189.846 50.7758 189.955 51.0469C190.068 51.3398 190.106 51.6568 190.064 51.9683C189.977 52.6081 189.6 53.1493 189.41 53.7453C189.31 54.0328 189.284 54.3407 189.333 54.6411C189.394 54.9319 189.509 55.2085 189.673 55.4565C189.988 55.9647 190.405 56.3998 190.672 56.9007C191.163 57.7811 191.425 58.7704 191.436 59.7783C191.447 60.4528 191.344 61.1243 191.129 61.7637C191.067 61.9356 190.996 62.104 190.917 62.2683C190.891 62.3277 190.859 62.3841 190.822 62.4365Z" fill="#455A64"></path>
        <path d="M175.922 130.566C175.922 130.566 173.461 107.224 173.318 98.5982C173.176 89.9728 177.198 81.4607 177.198 81.4607L192.954 80.8062C192.954 80.8062 196.07 89.556 196.125 93.2379C196.234 100.383 194.226 107.436 194.457 113.103L194.984 130.581" fill="#263238"></path>
        <path d="M195.511 101.867C195.431 101.94 195.346 102.006 195.255 102.064L195.112 102.163C195.061 102.207 195.013 102.258 194.958 102.313C194.822 102.429 194.699 102.56 194.593 102.704C194.084 103.326 193.711 104.441 193.36 105.827C193.179 106.596 192.912 107.341 192.563 108.05C192.456 108.243 192.333 108.428 192.197 108.602C192.128 108.69 192.066 108.785 191.992 108.869L191.747 109.11C191.403 109.435 191.001 109.693 190.562 109.871C189.681 110.258 188.686 110.441 187.776 110.898C186.848 111.4 186.13 112.217 185.753 113.202C185.311 114.193 185.044 115.231 184.656 116.204C184.268 117.176 183.8 118.105 183.014 118.697C182.257 119.223 181.357 119.505 180.436 119.505C179.587 119.557 178.801 119.531 178.095 119.637C177.476 119.707 176.884 119.934 176.376 120.295C175.995 120.591 175.71 120.993 175.557 121.451C175.459 121.739 175.437 122.047 175.495 122.346C175.535 122.551 175.593 122.65 175.579 122.654C175.522 122.561 175.482 122.46 175.458 122.354C175.381 122.049 175.39 121.729 175.484 121.429C175.632 120.95 175.92 120.526 176.31 120.211C176.838 119.812 177.463 119.559 178.121 119.48C178.852 119.363 179.631 119.377 180.469 119.323C181.356 119.318 182.221 119.043 182.948 118.533C183.688 117.887 184.235 117.05 184.528 116.112C184.894 115.151 185.157 114.109 185.625 113.099C186.018 112.074 186.767 111.224 187.735 110.704C188.683 110.236 189.677 110.057 190.537 109.684C190.958 109.511 191.345 109.263 191.678 108.953L191.912 108.723C191.985 108.642 192.044 108.551 192.109 108.467C192.24 108.301 192.355 108.123 192.453 107.937C192.801 107.237 193.071 106.501 193.258 105.743C193.624 104.361 194.026 103.231 194.563 102.606C194.67 102.463 194.793 102.333 194.929 102.218C194.988 102.167 195.039 102.116 195.094 102.075L195.244 101.98C195.33 101.937 195.419 101.899 195.511 101.867Z" fill="#FAFAFA"></path>
        <path d="M195.609 91.066C195.617 91.1695 195.617 91.2734 195.609 91.3768C195.608 91.6787 195.571 91.9794 195.499 92.2726C195.185 93.3414 194.567 94.2964 193.722 95.0223C193.162 95.5362 192.549 95.9885 191.893 96.3715C191.187 96.7883 190.408 97.1868 189.611 97.6402C188.769 98.0911 187.984 98.6424 187.274 99.2819C186.548 100.003 185.951 100.843 185.508 101.765C185.058 102.699 184.545 103.602 183.972 104.467C183.682 104.87 183.347 105.238 182.973 105.564C182.608 105.871 182.21 106.136 181.785 106.353C180.998 106.739 180.178 107.054 179.334 107.293C178.552 107.534 177.824 107.75 177.187 108.024C176.61 108.254 176.06 108.548 175.549 108.902C175.163 109.168 174.815 109.487 174.518 109.849C174.271 110.163 174.064 110.507 173.903 110.873C173.927 110.771 173.96 110.672 174.002 110.577C174.122 110.3 174.275 110.04 174.459 109.801C174.753 109.425 175.099 109.093 175.487 108.814C175.999 108.448 176.551 108.141 177.133 107.9C177.837 107.614 178.556 107.363 179.287 107.15C180.117 106.907 180.925 106.591 181.701 106.207C182.112 105.992 182.499 105.732 182.853 105.432C183.216 105.112 183.541 104.751 183.822 104.357C184.386 103.497 184.893 102.6 185.339 101.673C185.793 100.733 186.404 99.8771 187.146 99.143C187.868 98.4956 188.667 97.9382 189.523 97.483C190.332 97.0333 191.111 96.642 191.813 96.2289C192.468 95.8595 193.081 95.4207 193.641 94.9199C194.48 94.2157 195.104 93.2893 195.441 92.2471C195.539 91.8605 195.595 91.4646 195.609 91.066Z" fill="#FAFAFA"></path>
        <path d="M173.399 99.8194C173.384 99.7968 173.373 99.7722 173.366 99.7463C173.338 99.6758 173.315 99.6038 173.296 99.5306C173.233 99.2397 173.246 98.9377 173.333 98.653C173.534 97.9218 174.346 96.9821 175.648 96.5177C176.295 96.2947 177.034 96.1521 177.798 95.962C178.617 95.7899 179.375 95.401 179.992 94.8358C180.305 94.5105 180.567 94.1408 180.771 93.7389C180.982 93.3135 181.165 92.875 181.32 92.4262C181.604 91.4524 181.993 90.5121 182.479 89.6218C183.035 88.7459 183.878 88.0905 184.864 87.768C185.761 87.4766 186.676 87.2445 187.603 87.0733C188.43 86.915 189.23 86.6418 189.98 86.2615C190.619 85.8988 191.17 85.3994 191.593 84.799C192.218 83.9335 192.574 82.9036 192.617 81.8373C192.619 81.4459 192.592 81.0548 192.537 80.6673C192.648 81.0471 192.699 81.4417 192.69 81.8373C192.674 82.9264 192.33 83.9853 191.703 84.8758C191.274 85.4959 190.712 86.0119 190.057 86.3859C189.295 86.7802 188.481 87.0646 187.64 87.2305C186.722 87.4048 185.817 87.6381 184.93 87.9289C183.982 88.2378 183.173 88.8676 182.64 89.7095C182.162 90.5877 181.778 91.5144 181.496 92.4738C181.336 92.9301 181.148 93.3759 180.932 93.8083C180.717 94.2238 180.442 94.6056 180.117 94.9418C179.475 95.5274 178.684 95.9258 177.831 96.0936C177.056 96.291 176.321 96.4153 175.684 96.6274C174.415 97.0589 173.611 97.9474 173.395 98.6567C173.303 98.9295 173.279 99.2208 173.325 99.505C173.373 99.728 173.406 99.8194 173.399 99.8194Z" fill="#FAFAFA"></path>
        <path d="M194.253 119.564C194.27 119.639 194.278 119.717 194.278 119.794C194.287 120.016 194.265 120.237 194.212 120.452C193.98 121.244 193.494 121.937 192.83 122.427C192.385 122.781 191.892 123.072 191.367 123.29C190.768 123.53 190.158 123.74 189.538 123.919C188.864 124.116 188.204 124.36 187.563 124.65C186.881 124.963 186.268 125.409 185.76 125.963C185.227 126.518 184.769 127.129 184.257 127.67C183.768 128.194 183.199 128.638 182.571 128.986C181.504 129.569 180.309 129.88 179.093 129.893C178.278 129.902 177.467 129.767 176.698 129.495C176.49 129.422 176.287 129.335 176.091 129.235C176.02 129.204 175.953 129.166 175.89 129.122C175.966 129.139 176.039 129.164 176.109 129.199C176.31 129.285 176.515 129.361 176.723 129.425C177.489 129.665 178.288 129.777 179.09 129.758C180.28 129.728 181.446 129.41 182.487 128.833C183.095 128.489 183.646 128.053 184.122 127.542C184.623 127.008 185.08 126.401 185.625 125.831C186.149 125.262 186.78 124.802 187.483 124.478C188.133 124.187 188.803 123.943 189.487 123.747C190.135 123.549 190.749 123.381 191.316 123.14C191.828 122.932 192.309 122.655 192.746 122.317C193.4 121.853 193.888 121.192 194.139 120.43C194.208 120.147 194.246 119.856 194.253 119.564Z" fill="#FAFAFA"></path>
        <path d="M192.456 71.1022L189.41 71.1753C189.291 71.7896 189.057 72.3762 188.722 72.9048C186.162 68.4805 184.198 62.5572 183.708 60.1769C183.778 59.9392 183.865 59.676 183.968 59.3834C184.046 58.9393 184.032 58.4839 183.928 58.0452C183.844 57.515 183.697 56.802 183.65 56.473C183.514 55.4638 183.353 55.3066 183.002 55.4199C182.523 55.5771 183.2 58.2463 182.809 58.3048C182.596 58.3341 182.34 57.42 182.264 56.6704C182.187 55.9208 181.85 53.61 181.602 53.4564C181.236 53.2297 180.921 53.5881 181.013 54.334C181.104 55.0799 181.225 57.3468 180.826 57.3797C180.428 57.4126 180.095 53.5807 180.095 53.5807C180.095 53.5807 180.153 52.7471 179.696 52.7654C178.866 52.8019 179.513 56.8386 179.587 57.2225C179.634 57.4858 179.221 57.537 179.166 57.2481C179.111 56.9593 178.928 53.4199 178.069 53.4491C177.421 53.4491 178.57 56.7728 178.208 57.5406C177.846 58.3085 177.59 54.9373 176.972 54.9811C176.745 54.9994 176.573 55.0433 176.997 56.9483C177.402 58.4623 177.89 59.9528 178.46 61.4127C179.44 66.6962 183.741 83.5997 190.481 80.5064C194.252 78.7733 195.784 71.1022 195.784 71.1022H192.456Z" fill="#B78876"></path>
        <path d="M179.455 57.4784C179.484 57.4857 179.514 57.4857 179.543 57.4784C179.588 57.465 179.626 57.4364 179.651 57.3977C179.677 57.3589 179.688 57.3124 179.682 57.2664C179.682 57.0397 179.638 56.7106 179.583 56.2828C179.501 55.7667 179.445 55.2469 179.415 54.7252C179.415 54.4181 179.415 54.089 179.437 53.7416C179.441 53.5649 179.459 53.3888 179.492 53.2151C179.518 53.0506 179.631 52.8495 179.759 52.8824H179.777C179.909 52.8824 180.011 52.9774 180.051 53.131C180.097 53.29 180.113 53.4561 180.099 53.621C180.178 54.6446 180.309 55.6636 180.49 56.674C180.52 56.8093 180.553 56.9483 180.593 57.0872C180.615 57.1579 180.64 57.2274 180.67 57.2956C180.687 57.334 180.708 57.3708 180.732 57.4053C180.748 57.432 180.771 57.4546 180.797 57.4711C180.824 57.4876 180.854 57.4976 180.885 57.5004C181.035 57.5004 181.079 57.3724 181.116 57.3066C181.146 57.235 181.168 57.1601 181.182 57.0836C181.212 56.9365 181.231 56.7874 181.24 56.6375C181.275 56.0283 181.267 55.4175 181.218 54.8093C181.173 54.5056 181.159 54.198 181.178 53.8915C181.184 53.8256 181.204 53.7616 181.235 53.7032C181.267 53.6448 181.309 53.5933 181.361 53.5515C181.384 53.5375 181.41 53.5287 181.437 53.5256C181.465 53.5224 181.492 53.525 181.518 53.5332C181.548 53.5414 181.576 53.5537 181.602 53.5698C181.628 53.5917 181.62 53.5698 181.642 53.6246C181.761 53.9204 181.846 54.2281 181.898 54.5424C181.961 54.8641 182.019 55.1969 182.07 55.5296C182.121 55.8623 182.169 56.1987 182.209 56.5388C182.239 56.8899 182.295 57.2382 182.377 57.5808C182.419 57.7567 182.474 57.929 182.542 58.0964C182.578 58.1903 182.629 58.2779 182.692 58.356C182.718 58.3881 182.752 58.4125 182.791 58.4266C182.829 58.4408 182.871 58.4442 182.911 58.4364C182.948 58.4228 182.98 58.4008 183.006 58.3722C183.032 58.3436 183.051 58.3092 183.061 58.2719C183.103 58.0848 183.116 57.8924 183.098 57.7015C183.098 57.5187 183.076 57.3359 183.061 57.1603C183.036 56.8532 183.007 56.5497 182.996 56.2499C182.986 56.1026 182.986 55.9548 182.996 55.8075C183.002 55.7424 183.016 55.6785 183.039 55.6173C183.048 55.5969 183.06 55.5783 183.076 55.5625H183.124C183.365 55.4638 183.445 55.8002 183.511 56.0707C183.577 56.3413 183.603 56.6485 183.658 56.9373C183.756 57.5114 183.877 58.0854 183.943 58.6339C183.986 58.8966 183.975 59.1654 183.91 59.4237C183.822 59.6869 183.738 59.9465 183.654 60.2061V60.2317V60.2536C184.083 62.0501 184.631 63.8163 185.292 65.5408C185.87 67.1021 186.448 68.4659 186.96 69.5628C187.472 70.6597 187.925 71.519 188.244 72.0967C188.401 72.3746 188.529 72.5903 188.609 72.7512C188.651 72.8275 188.697 72.9008 188.748 72.9706C188.72 72.8889 188.683 72.8104 188.639 72.7366L188.273 72.0674C187.977 71.4788 187.541 70.6049 187.044 69.508C186.547 68.4111 185.987 67.0472 185.42 65.4859C184.775 63.7644 184.242 62.0033 183.822 60.2134V60.2646C183.906 60.0087 183.994 59.7491 184.078 59.4895C184.154 59.2045 184.17 58.9071 184.126 58.6156C184.06 58.0415 183.939 57.4858 183.844 56.9081C183.789 56.6229 183.753 56.3303 183.694 56.0305C183.665 55.8732 183.615 55.7206 183.544 55.5771C183.501 55.4887 183.431 55.4168 183.343 55.3724C183.249 55.3417 183.148 55.3417 183.054 55.3724H182.992C182.962 55.3824 182.935 55.3986 182.911 55.4199C182.87 55.4542 182.837 55.4981 182.816 55.5479C182.786 55.6277 182.766 55.7114 182.758 55.7965C182.747 55.9548 182.747 56.1136 182.758 56.2718C182.758 56.579 182.798 56.8861 182.824 57.1933C182.824 57.3724 182.857 57.5589 182.864 57.7234C182.877 57.8885 182.867 58.0547 182.835 58.217C182.835 58.2536 182.809 58.2463 182.835 58.2646L182.813 58.2426C182.766 58.1824 182.728 58.1159 182.699 58.0452C182.635 57.8875 182.584 57.7249 182.546 57.5589C182.465 57.2259 182.41 56.8873 182.381 56.5461C182.341 56.2024 182.29 55.8623 182.239 55.5259C182.187 55.1896 182.129 54.8605 182.063 54.5314C182.006 54.1968 181.913 53.8695 181.785 53.5551C181.757 53.5037 181.717 53.4598 181.668 53.4272C181.626 53.4012 181.58 53.3814 181.533 53.3687C181.481 53.3549 181.427 53.3516 181.375 53.3592C181.322 53.3667 181.271 53.3849 181.225 53.4125C181.15 53.4689 181.087 53.5402 181.041 53.622C180.994 53.7038 180.965 53.7943 180.955 53.8879C180.931 54.054 180.931 54.2227 180.955 54.3888C180.973 54.546 180.988 54.6996 181.002 54.8532C181.051 55.4515 181.062 56.0524 181.035 56.6521C181.027 56.7946 181.008 56.9363 180.98 57.0763C180.966 57.1408 180.948 57.2043 180.926 57.2664C180.916 57.2905 180.902 57.3128 180.885 57.3322C180.885 57.3651 180.86 57.3322 180.86 57.3761C180.882 57.3395 180.86 57.3761 180.86 57.3285C180.842 57.3047 180.827 57.279 180.816 57.2518C180.789 57.1911 180.766 57.1288 180.746 57.0653C180.706 56.9337 180.673 56.7984 180.644 56.6667C180.428 55.5918 180.326 54.568 180.231 53.6392C180.243 53.4556 180.223 53.2713 180.172 53.0944C180.147 53.0029 180.097 52.9197 180.03 52.8531C179.956 52.7853 179.859 52.7487 179.759 52.7507H179.777C179.716 52.7424 179.653 52.7522 179.598 52.7788C179.542 52.8055 179.495 52.8478 179.463 52.9006C179.407 52.9877 179.369 53.0845 179.349 53.1859C179.318 53.367 179.302 53.5505 179.302 53.7343C179.302 54.0999 179.302 54.418 179.302 54.7288C179.339 55.2541 179.408 55.7766 179.507 56.2938C179.569 56.7179 179.616 57.047 179.638 57.27C179.645 57.3095 179.638 57.3502 179.618 57.3849C179.598 57.4196 179.566 57.4462 179.529 57.4602L179.455 57.4784Z" fill="#A36957"></path>
        <path d="M155.64 76.137C154.926 76.1218 154.213 76.2042 153.522 76.382C151.631 76.8793 148.373 78.8537 148.237 81.2925H150.604C150.604 81.2925 149.28 84.1153 149.667 83.852C150.68 83.1719 152.692 81.128 152.692 81.128L155.64 76.137Z" fill="#B78876"></path>
        <path d="M187.94 33.6388C187.888 33.6388 187.673 31.6863 187.461 29.2511C187.248 26.816 187.117 24.8634 187.172 24.8634C187.227 24.8634 187.439 26.816 187.651 29.2511C187.863 31.6863 187.995 33.6388 187.94 33.6388Z" fill="#263238"></path>
        <path d="M198.33 25.0134C198.374 25.0426 196.772 27.3644 194.757 30.1981C192.742 33.0318 191.07 35.3171 191.03 35.2732C190.99 35.2293 192.584 32.9221 194.603 30.0884C196.622 27.2547 198.286 24.9841 198.33 25.0134Z" fill="#263238"></path>
        <path d="M202.645 35.5365C202.645 35.5876 200.791 36.0154 198.476 36.4908C196.161 36.9661 194.278 37.3098 194.267 37.2586C194.256 37.2074 196.125 36.7796 198.44 36.3043C200.755 35.829 202.638 35.4853 202.645 35.5365Z" fill="#263238"></path>
        <path d="M78.26 85.757L65.3281 152.23L63.6348 160.932L149.971 160.515C153.844 160.497 157.285 157.057 158.525 151.945L173.852 89.183C174.8 85.3036 172.722 81.2669 169.782 81.2706L82.4 81.362C80.4543 81.3656 78.7647 83.1646 78.26 85.757Z" fill="#00A0D2"></path>
        <g opacity="0.5">
            <path d="M78.26 85.757L65.3281 152.23L63.6348 160.932L149.971 160.515C153.844 160.497 157.285 157.057 158.525 151.945L173.852 89.183C174.8 85.3036 172.722 81.2669 169.782 81.2706L82.4 81.362C80.4543 81.3656 78.7647 83.1646 78.26 85.757Z" fill="black"></path>
        </g>
        <path d="M141.687 147.718L132.544 74.0748C132.178 71.0583 129.764 68.8059 126.926 68.8169L106.881 68.8791C106.137 68.8879 105.402 69.0481 104.722 69.3498C104.042 69.6516 103.43 70.0885 102.924 70.6341L93.4152 80.7514L37.6719 81.0402C34.2634 81.0585 31.6485 84.2834 32.0983 87.9033L40.5867 155.967C40.9524 158.98 43.3589 161.228 46.1969 161.225L143.347 161.031C154.169 161.254 155.2 158.062 155.2 158.062C142.795 160.819 141.691 147.736 141.687 147.718Z" fill="#00A0D2"></path>
        <path d="M88.3171 112.476C87.6954 109.913 84.0499 109.913 83.4282 112.476C83.0254 114.133 81.1282 114.918 79.6747 114.031C77.4214 112.659 74.8442 115.237 76.216 117.489C76.4222 117.828 76.5456 118.21 76.5762 118.605C76.6069 119 76.5438 119.396 76.3922 119.762C76.2406 120.128 76.0047 120.453 75.7037 120.711C75.4028 120.968 75.0453 121.151 74.6603 121.245C72.0976 121.866 72.0976 125.512 74.6603 126.134C75.0449 126.227 75.402 126.41 75.7027 126.668C76.0033 126.925 76.2389 127.25 76.3903 127.616C76.5418 127.982 76.6048 128.378 76.5742 128.773C76.5437 129.168 76.4204 129.549 76.2145 129.888C74.8427 132.141 77.4214 134.718 79.6732 133.346C80.0114 133.14 80.3935 133.017 80.7885 132.986C81.1834 132.956 81.58 133.019 81.946 133.17C82.3119 133.322 82.6369 133.558 82.8945 133.859C83.152 134.16 83.3349 134.517 83.4282 134.902C84.0499 137.465 87.6954 137.465 88.3171 134.902C88.4106 134.518 88.5936 134.16 88.8511 133.86C89.1087 133.559 89.4335 133.324 89.7992 133.172C90.165 133.021 90.5613 132.958 90.9559 132.988C91.3506 133.019 91.7325 133.142 92.0706 133.348C94.3238 134.72 96.9011 132.141 95.5293 129.889C95.323 129.551 95.1996 129.169 95.169 128.774C95.1384 128.379 95.2014 127.982 95.353 127.616C95.5047 127.25 95.7405 126.925 96.0415 126.668C96.3425 126.41 96.7 126.227 97.0849 126.134C99.6476 125.512 99.6476 121.866 97.0849 121.245C96.7003 121.151 96.3432 120.968 96.0426 120.711C95.7419 120.453 95.5063 120.128 95.3549 119.762C95.2035 119.397 95.1405 119 95.171 118.606C95.2016 118.211 95.3248 117.829 95.5307 117.491C96.9025 115.237 94.3238 112.66 92.072 114.032C91.7338 114.238 91.3517 114.362 90.9567 114.392C90.5618 114.423 90.1652 114.36 89.7993 114.208C89.4333 114.057 89.1083 113.821 88.8508 113.52C88.5932 113.219 88.4103 112.861 88.3171 112.476Z" stroke="#7FCFE8" stroke-width="2" stroke-linecap="round" stroke-linejoin="round"></path>
        <path d="M88.969 126.785C89.7901 125.964 90.2513 124.85 90.2513 123.689C90.2513 122.528 89.7901 121.414 88.969 120.593C88.148 119.772 87.0344 119.311 85.8732 119.311C84.7121 119.311 83.5985 119.772 82.7774 120.593C81.9564 121.414 81.4951 122.528 81.4951 123.689C81.4951 124.85 81.9564 125.964 82.7774 126.785C83.5985 127.606 84.7121 128.068 85.8732 128.068C87.0344 128.068 88.148 127.606 88.969 126.785Z" stroke="#7FCFE8" stroke-width="2" stroke-linecap="round" stroke-linejoin="round"></path>
        <path d="M155.566 37.946C155.448 37.8961 155.346 37.8136 155.273 37.7081C155.2 37.6025 155.158 37.4783 155.153 37.35L155.007 33.9569C155.001 33.8515 155.021 33.7463 155.063 33.6497C155.106 33.553 155.17 33.4676 155.252 33.4002C155.333 33.3328 155.429 33.2853 155.532 33.2613C155.634 33.2373 155.741 33.2376 155.844 33.2622C156.127 33.3234 156.419 33.3261 156.702 33.2701C156.986 33.2142 157.255 33.1007 157.493 32.9368C157.713 32.7971 157.903 32.6143 158.05 32.3993C158.197 32.1844 158.299 31.9418 158.349 31.6863C158.381 31.4275 158.362 31.165 158.291 30.9139C158.221 30.6628 158.101 30.4282 157.94 30.2237C157.768 29.9916 157.553 29.7957 157.305 29.647C157.058 29.4983 156.784 29.3998 156.499 29.3571C155.923 29.3252 155.354 29.4883 154.883 29.82C154.411 30.1518 154.066 30.6329 153.902 31.1853C153.881 31.2753 153.843 31.3602 153.788 31.4348C153.734 31.5094 153.665 31.5722 153.585 31.6194C153.506 31.6666 153.418 31.6973 153.326 31.7095C153.235 31.7217 153.142 31.7153 153.053 31.6906C152.964 31.6659 152.881 31.6234 152.808 31.5657C152.736 31.508 152.677 31.4363 152.633 31.3549C152.589 31.2735 152.563 31.1842 152.554 31.0922C152.546 31.0002 152.557 30.9075 152.585 30.8197C152.837 29.9518 153.379 29.1969 154.122 28.6821C154.865 28.1673 155.762 27.9241 156.663 27.9933C157.133 28.0558 157.585 28.212 157.992 28.4526C158.4 28.6931 158.755 29.0132 159.037 29.3937C159.32 29.7412 159.526 30.1449 159.641 30.578C159.756 31.011 159.778 31.4637 159.705 31.9059C159.632 32.348 159.466 32.7697 159.218 33.1428C158.97 33.5159 158.645 33.8321 158.265 34.0702C157.716 34.4395 157.076 34.6485 156.415 34.6735L156.528 37.2915C156.535 37.4723 156.47 37.6484 156.347 37.7814C156.225 37.9143 156.054 37.9932 155.873 38.0009C155.768 38.007 155.663 37.9882 155.566 37.946Z" fill="#00A0D2"></path>
        <path d="M156.561 39.3354C156.568 39.4449 156.542 39.5539 156.487 39.6488C156.432 39.7437 156.351 39.8203 156.252 39.8688C156.154 39.9174 156.043 39.9357 155.935 39.9216C155.826 39.9075 155.724 39.8615 155.641 39.7895C155.558 39.7175 155.499 39.6226 155.47 39.5168C155.441 39.4111 155.444 39.2991 155.479 39.1951C155.513 39.091 155.578 38.9995 155.664 38.9321C155.751 38.8647 155.855 38.8244 155.965 38.8162C156.038 38.8108 156.112 38.8199 156.182 38.8431C156.251 38.8663 156.316 38.9031 156.371 38.9514C156.427 38.9997 156.472 39.0585 156.505 39.1244C156.537 39.1903 156.556 39.2621 156.561 39.3354Z" fill="#00A0D2"></path>
        <path d="M143.808 33.1598C143.828 33.0884 143.839 33.0146 143.841 32.9404C143.859 32.7795 143.885 32.5748 143.914 32.2859C143.948 31.9313 144.007 31.5795 144.089 31.2329C144.128 31.0099 144.178 30.789 144.239 30.5711C144.309 30.3407 144.386 30.0921 144.466 29.8398C144.89 28.5898 145.507 27.4139 146.295 26.3553C147.596 24.6315 149.33 23.2823 151.321 22.4443C153.312 21.6064 155.489 21.3095 157.632 21.5837C157.914 21.6129 158.188 21.686 158.47 21.7336C158.754 21.7819 159.036 21.8503 159.311 21.9383C160.478 22.2581 161.589 22.7577 162.602 23.4192C164.83 24.8639 166.527 26.9944 167.437 29.4888C167.925 30.8254 168.173 32.2378 168.169 33.6607C168.182 35.1269 167.922 36.5828 167.401 37.9533L167.236 38.3701L167.214 38.425L167.236 38.4798L169.928 44.6701L170.081 44.4946L164.595 42.3922L164.53 42.3666L164.475 42.4178C163.022 43.8221 161.246 44.8469 159.303 45.4014C157.548 45.8875 155.705 45.9713 153.913 45.6464C152.301 45.3717 150.762 44.7694 149.392 43.8767C148.209 43.1022 147.166 42.1315 146.309 41.0064C145.066 39.3654 144.261 37.4353 143.969 35.3975C143.925 35.0319 143.885 34.7247 143.852 34.4468C143.819 34.169 143.852 33.9423 143.833 33.7485C143.815 33.5547 143.833 33.4267 143.833 33.3207C143.837 33.272 143.837 33.2231 143.833 33.1744C143.83 33.2231 143.83 33.272 143.833 33.3207C143.833 33.4267 143.833 33.5693 143.833 33.7485V34.4542C143.863 34.732 143.896 35.0501 143.929 35.4121C144.052 36.2909 144.262 37.1555 144.554 37.9935C144.975 39.0983 145.54 40.1432 146.233 41.1015C147.094 42.2458 148.144 43.235 149.338 44.0266C150.799 44.9888 152.449 45.6292 154.177 45.9054C155.906 46.1815 157.673 46.087 159.362 45.6281C161.345 45.0692 163.158 44.0278 164.639 42.5969L164.519 42.6225L170.004 44.7359L170.282 44.842L170.162 44.5604C169.288 42.5531 168.392 40.4835 167.474 38.3701V38.4762L167.646 38.0484C168.159 36.6364 168.403 35.1407 168.366 33.6388C168.378 32.1855 168.13 30.7418 167.635 29.3754C166.703 26.8326 164.969 24.6621 162.694 23.1925C161.666 22.524 160.541 22.0183 159.358 21.6934C159.078 21.6052 158.792 21.538 158.503 21.4923C158.214 21.4411 157.932 21.3679 157.65 21.3423C157.09 21.2729 156.525 21.2412 155.961 21.2473C154.888 21.2523 153.821 21.3974 152.786 21.6787C151.83 21.9514 150.909 22.3368 150.043 22.8268C148.527 23.6807 147.208 24.8458 146.174 26.2456C145.391 27.3227 144.783 28.5174 144.375 29.7849L144.155 30.5162C144.086 30.7466 144.064 30.9769 144.02 31.1853C143.942 31.5346 143.89 31.889 143.863 32.2457C143.844 32.5272 143.83 32.743 143.815 32.9038C143.807 32.9889 143.805 33.0744 143.808 33.1598Z" fill="#263238"></path>
    </g>
    <defs>
        <clipPath id="clip0_15599_91460">
            <rect width="220" height="162" fill="white" transform="translate(0.5)"></rect>
        </clipPath>
    </defs>
</svg>