<svg width="26" height="30" viewBox="0 0 26 30" fill="none" xmlns="http://www.w3.org/2000/svg">
    <path d="M22.1065 0.822391C21.7834 0.96589 21.4912 1.17448 21.247 1.43599L20.197 2.52163L23.9413 6.39323L24.9912 5.3076C25.2441 5.05502 25.4458 4.75289 25.5846 4.41884C25.7234 4.08478 25.7965 3.7255 25.7995 3.36194C25.8026 2.99838 25.7356 2.63784 25.6024 2.30134C25.4693 1.96485 25.2727 1.65914 25.024 1.40205C24.7754 1.14497 24.4798 0.941662 24.1543 0.803991C23.8289 0.666319 23.4802 0.597042 23.1286 0.600201C22.777 0.60336 22.4296 0.678893 22.1065 0.822391Z" fill="#A50ECB"></path>
    <path d="M18.3249 4.45743L7.23119 15.9285V19.8001H10.9754L22.0705 8.32903L18.3249 4.45743Z" fill="#A50ECB"></path>
    <path d="M5.88252 20.5716C5.73076 19.9959 5.2119 19.6707 4.71971 19.8489C2.72015 20.5668 1.33174 22.0989 0.827234 23.578C0.605745 24.2333 0.542169 24.8933 0.652914 25.5052C0.771862 26.1628 1.08154 26.7458 1.60245 27.1915C2.52942 27.9864 4.18444 28.2876 6.67414 27.5769C7.86362 27.2372 9.08387 26.7964 10.1647 26.4037C11.1983 26.0279 12.1006 25.7003 12.6441 25.5823C13.7351 25.3438 14.8077 25.18 15.626 25.2282C16.1387 25.2571 16.4894 25.3245 16.5263 25.4546C16.6103 25.7457 16.5736 26.1496 16.5408 26.5105C16.5121 26.8333 16.4853 27.1361 16.5058 27.4468C16.594 28.7693 17.1682 29.5908 19.6436 29.362C20.9923 29.2371 22.2392 28.6794 23.4736 28.1273L23.4868 28.1213C23.5249 28.1044 23.563 28.0874 23.6011 28.0704C24.1408 27.8296 24.6743 27.5917 25.1398 27.4251C25.6299 27.2517 25.9089 26.6422 25.7591 26.0641C25.6115 25.4883 25.0926 25.1607 24.6004 25.3366C23.9585 25.5678 23.3925 25.8208 22.8224 26.0761C21.7108 26.5748 20.5849 27.0783 19.498 27.1794C18.5587 27.2662 18.3639 27.283 18.3639 27.2782C18.3561 27.1579 18.3721 26.9779 18.3894 26.7822L18.3926 26.7458C18.4459 26.1628 18.5054 25.5124 18.2921 24.7632C17.9619 23.6045 16.998 23.1203 15.7142 23.0456C14.7359 22.9878 13.5239 23.1685 12.3098 23.4335C11.6621 23.5757 10.7344 23.9115 9.67132 24.2963L9.61913 24.3152C8.5568 24.7006 7.35707 25.1342 6.23732 25.4546C4.34645 25.9942 3.22055 25.8786 2.69759 25.4305C2.57659 25.3269 2.50276 25.1968 2.47815 25.0547C2.44534 24.8668 2.47405 24.638 2.55813 24.3874C2.87601 23.4503 3.8358 22.453 5.26728 21.9375C5.75742 21.7593 6.03429 21.1498 5.88252 20.5716Z" fill="#A50ECB"></path>
</svg>